<svg width="128" height="128" viewBox="0 0 128 128" fill="none" xmlns="http://www.w3.org/2000/svg">
<rect width="128" height="128" fill="#1E1E1E"/>
<rect width="128" height="128" fill="#D9D9D9"/>
<rect width="128" height="128" fill="#DEDEDE"/>
<g clip-path="url(#clip0_0_1)">
<path d="M77.8676 49H74.6689V47.6667C74.6689 46.9594 74.4442 46.2811 74.0443 45.781C73.6444 45.281 73.102 45 72.5364 45H55.4769C54.9113 45 54.3689 45.281 53.969 45.781C53.5691 46.2811 53.3444 46.9594 53.3444 47.6667V49H50.1324C49.5669 49 49.0245 49.281 48.6246 49.781C48.2247 50.2811 48 50.9594 48 51.6667V54.3333C48 56.1014 48.5617 57.7971 49.5614 59.0474C50.5612 60.2976 51.9172 61 53.3311 61H53.8642C55.157 65.9833 58.6889 69.7167 62.9404 70.2667V74.3333H59.7418C59.459 74.3333 59.1878 74.4738 58.9878 74.7239C58.7879 74.9739 58.6756 75.313 58.6756 75.6667C58.6756 76.0203 58.7879 76.3594 58.9878 76.6095C59.1878 76.8595 59.459 77 59.7418 77H68.2716C68.5543 77 68.8255 76.8595 69.0255 76.6095C69.2254 76.3594 69.3378 76.0203 69.3378 75.6667C69.3378 75.313 69.2254 74.9739 69.0255 74.7239C68.8255 74.4738 68.5543 74.3333 68.2716 74.3333H65.0729V70.2667C67.1505 70.0115 69.1219 68.9965 70.7408 67.3485C72.3598 65.7004 73.5545 63.4923 74.1758 61H74.6689C76.0828 61 77.4388 60.2976 78.4386 59.0474C79.4383 57.7971 80 56.1014 80 54.3333V51.6667C80 50.9594 79.7753 50.2811 79.3754 49.781C78.9755 49.281 78.4331 49 77.8676 49V49ZM53.3311 58.3333C52.4828 58.3333 51.6692 57.9119 51.0693 57.1618C50.4694 56.4116 50.1324 55.3942 50.1324 54.3333V51.6667H53.3444V56.85C53.3463 57.3455 53.3686 57.8406 53.4111 58.3333H53.3311ZM77.8676 54.3333C77.864 55.3928 77.5259 56.4077 76.9268 57.1569C76.3277 57.9061 75.5161 58.3289 74.6689 58.3333H74.6156C74.6536 57.8905 74.6714 57.4454 74.6689 57V51.6667H77.8676V54.3333Z" fill="black" fill-opacity="0.1"/>
</g>
<defs>
<clipPath id="clip0_0_1">
<rect width="32" height="32" fill="white" transform="translate(48 48)"/>
</clipPath>
</defs>
</svg>
