<svg width="128" height="128" viewBox="0 0 128 128" fill="none" xmlns="http://www.w3.org/2000/svg">
<rect x="0.5" y="0.5" width="127" height="127" rx="63.5" fill="#F5F5F5"/>
<g clip-path="url(#clip0_1_2)">
<path d="M64 65.25C66.7167 65.25 69.1167 65.9 71.0667 66.75C72.8667 67.55 74 69.35 74 71.3V74H54V71.3167C54 69.35 55.1333 67.55 56.9333 66.7667C58.8833 65.9 61.2833 65.25 64 65.25ZM50.6667 65.6667C52.5 65.6667 54 64.1667 54 62.3333C54 60.5 52.5 59 50.6667 59C48.8333 59 47.3333 60.5 47.3333 62.3333C47.3333 64.1667 48.8333 65.6667 50.6667 65.6667ZM52.55 67.5C51.9333 67.4 51.3167 67.3333 50.6667 67.3333C49.0167 67.3333 47.45 67.6833 46.0333 68.3C45.4295 68.5581 44.9149 68.9879 44.5534 69.5361C44.1919 70.0843 43.9994 70.7267 44 71.3833V74H51.5V71.3167C51.5 69.9333 51.8833 68.6333 52.55 67.5ZM77.3333 65.6667C79.1667 65.6667 80.6667 64.1667 80.6667 62.3333C80.6667 60.5 79.1667 59 77.3333 59C75.5 59 74 60.5 74 62.3333C74 64.1667 75.5 65.6667 77.3333 65.6667ZM84 71.3833C84 70.0333 83.2 68.8333 81.9667 68.3C80.5052 67.6623 78.9278 67.3332 77.3333 67.3333C76.6833 67.3333 76.0667 67.4 75.45 67.5C76.1167 68.6333 76.5 69.9333 76.5 71.3167V74H84V71.3833ZM64 54C66.7667 54 69 56.2333 69 59C69 61.7667 66.7667 64 64 64C61.2333 64 59 61.7667 59 59C59 56.2333 61.2333 54 64 54Z" fill="black" fill-opacity="0.1"/>
</g>
<rect x="0.5" y="0.5" width="127" height="127" rx="63.5" stroke="#50D8D7"/>
<defs>
<clipPath id="clip0_1_2">
<rect width="40" height="40" fill="white" transform="translate(44 44)"/>
</clipPath>
</defs>
</svg>
