<svg width="128" height="128" viewBox="0 0 128 128" fill="none" xmlns="http://www.w3.org/2000/svg">
<g clip-path="url(#clip0_1_2)">
<path d="M127.5 64C127.5 28.9299 99.0701 0.5 64 0.5C28.9299 0.5 0.5 28.9299 0.5 64C0.5 99.0701 28.9299 127.5 64 127.5C99.0701 127.5 127.5 99.0701 127.5 64Z" fill="#50D8D7"/>
<mask id="mask0_1_2" style="mask-type:luminance" maskUnits="userSpaceOnUse" x="42" y="44" width="45" height="40">
<path d="M87 44H42V84H87V44Z" fill="white"/>
</mask>
<g mask="url(#mask0_1_2)">
<path d="M64.5 65.25C67.5563 65.25 70.2563 65.9 72.45 66.75C74.475 67.55 75.75 69.35 75.75 71.3V74H53.25V71.3167C53.25 69.35 54.525 67.55 56.55 66.7667C58.7437 65.9 61.4437 65.25 64.5 65.25ZM49.5 65.6667C51.5625 65.6667 53.25 64.1667 53.25 62.3333C53.25 60.5 51.5625 59 49.5 59C47.4375 59 45.75 60.5 45.75 62.3333C45.75 64.1667 47.4375 65.6667 49.5 65.6667ZM51.6188 67.5C50.925 67.4 50.2313 67.3333 49.5 67.3333C47.6438 67.3333 45.8812 67.6833 44.2875 68.3C43.6082 68.5581 43.0293 68.9879 42.6226 69.5361C42.2159 70.0843 41.9993 70.7267 42 71.3833V74H50.4375V71.3167C50.4375 69.9333 50.8687 68.6333 51.6188 67.5ZM79.5 65.6667C81.5625 65.6667 83.25 64.1667 83.25 62.3333C83.25 60.5 81.5625 59 79.5 59C77.4375 59 75.75 60.5 75.75 62.3333C75.75 64.1667 77.4375 65.6667 79.5 65.6667ZM87 71.3833C87 70.0333 86.1 68.8333 84.7125 68.3C83.0683 67.6623 81.2938 67.3332 79.5 67.3333C78.7687 67.3333 78.075 67.4 77.3812 67.5C78.1313 68.6333 78.5625 69.9333 78.5625 71.3167V74H87V71.3833ZM64.5 54C67.6125 54 70.125 56.2333 70.125 59C70.125 61.7667 67.6125 64 64.5 64C61.3875 64 58.875 61.7667 58.875 59C58.875 56.2333 61.3875 54 64.5 54Z" fill="white"/>
</g>
</g>
<defs>
<clipPath id="clip0_1_2">
<rect width="128" height="128" fill="white"/>
</clipPath>
</defs>
</svg>
