<svg width="128" height="128" viewBox="0 0 128 128" fill="none" xmlns="http://www.w3.org/2000/svg">
<rect width="128" height="128" fill="#E5E5E5"/>
<rect width="128" height="128" fill="#F5F5F5"/>
<mask id="mask0_0_1" style="mask-type:alpha" maskUnits="userSpaceOnUse" x="49" y="49" width="30" height="29">
<path d="M64 68C68.418 68 72 64.3133 72 59.7647V50.6667H56V59.7647C56 64.3133 59.582 68 64 68Z" fill="white" stroke="white" stroke-width="2.66667" stroke-linejoin="round"/>
<path d="M56 62V55.3333H50.6667C50.6667 59.778 53.3333 62 56 62ZM72 62V55.3333H77.3333C77.3333 59.778 74.6667 62 72 62Z" stroke="white" stroke-width="2.66667" stroke-linecap="round" stroke-linejoin="round"/>
<path d="M64 69.3333V72" stroke="white" stroke-width="2.66667" stroke-linecap="round" stroke-linejoin="round"/>
<path d="M58 76L60.46 72H67.3613L70 76H58Z" fill="white" stroke="white" stroke-width="2.66667" stroke-linejoin="round"/>
</mask>
<g mask="url(#mask0_0_1)">
<path d="M48 48H80V80H48V48Z" fill="black" fill-opacity="0.1"/>
</g>
</svg>
