<svg width="100" height="26" viewBox="0 0 100 26" fill="none" xmlns="http://www.w3.org/2000/svg">
<g clip-path="url(#clip0_2_2)">
<path d="M7.63636 23H1.72159V5.54545H7.75568C9.48864 5.54545 10.9773 5.89489 12.2216 6.59375C13.4716 7.28693 14.4318 8.28409 15.1023 9.58523C15.7727 10.8864 16.108 12.4432 16.108 14.2557C16.108 16.0739 15.7699 17.6364 15.0938 18.9432C14.4233 20.25 13.4545 21.2528 12.1875 21.9517C10.9261 22.6506 9.40909 23 7.63636 23ZM4.88352 20.2642H7.48295C8.69886 20.2642 9.71307 20.0426 10.5256 19.5994C11.3381 19.1506 11.9489 18.483 12.358 17.5966C12.767 16.7045 12.9716 15.5909 12.9716 14.2557C12.9716 12.9205 12.767 11.8125 12.358 10.9318C11.9489 10.0455 11.3438 9.38352 10.5426 8.94602C9.74716 8.50284 8.75852 8.28125 7.5767 8.28125H4.88352V20.2642Z" fill="white"/>
<path d="M20.9631 23H17.5881L23.733 5.54545H27.6364L33.7898 23H30.4148L25.7528 9.125H25.6165L20.9631 23ZM21.0739 16.1562H30.2784V18.696H21.0739V16.1562Z" fill="white"/>
<path d="M47.7216 23V5.54545H58.9034V8.19602H50.8835V12.9347H58.1364V15.5852H50.8835V23H47.7216Z" fill="white"/>
<path d="M61.5284 5.54545H65.0994L69.3693 13.267H69.5398L73.8097 5.54545H77.3807L71.0312 16.4886V23H67.8778V16.4886L61.5284 5.54545Z" fill="white"/>
<path d="M38.75 10.7406V22H41.25V10.7406H45L40 7L35 10.7406H38.75V10.7406Z" fill="white"/>
</g>
<defs>
<clipPath id="clip0_2_2">
<rect width="100" height="26" fill="white"/>
</clipPath>
</defs>
</svg>
